# xmcd CD database file
#
# Track frame offsets:
#	150
#	21153
#	41461
#	69518
#	82073
#	100392
#	128001
#	140839
#	157730
#	175504
#	190637
#	207744
#	224525
#	239787
#	267758
#
# Disc length: 3791 seconds
#
# Revision: 0
# Processed by: cddbd v1.5.2PL0 Copyright (c) Steve Scherf et al.
# Submitted via: CDex 1.70beta2
#
DISCID=da0ecd0f
DTITLE=Joe Kienemann Trio - Amsel, Drossel , Swing und Funk - spielt deutsche Volksweisen
DYEAR=2001
DGENRE=Jazz
TTITLE0=Ale Vögelsind schon da
TTITLE1=Komm lieber Mai und mach die Bäume wieder grün
TTITLE2=Widele, Wedele, hinterm Städelehält der Bettelmann hochzeit
TTITLE3=Sah ein Knab ein Rößlein stehen
TTITLE4=Feins Liebchen, Du sollst nicht barfuß gehen
TTITLE5=Schwesterlein, Schwesterlein wann gehen wir nach Haus?
TTITLE6=Wie schön blüht uns der Maien
TTITLE7=Guten Abend Gut Nacht
TTITLE8=Bunt sind schon die Wälder
TTITLE9=Hab oft im Kreise der lieben im duftgen Gras geruht
TTITLE10=Der hat vergeben das ewige Leben, der nicht die Musik liebt
TTITLE11=Guter Mond, Du gehst so stille durch die Abendwolken hin
TTITLE12=Leise rieselt der Schnee
TTITLE13=Nun komm der Heiden Heiland
TTITLE14=Stille Nacht, heilige Nacht
EXTD=YEAR: 2001
EXTT0=
EXTT1=
EXTT2=
EXTT3=
EXTT4=
EXTT5=
EXTT6=
EXTT7=
EXTT8=
EXTT9=
EXTT10=
EXTT11=
EXTT12=
EXTT13=
EXTT14=
PLAYORDER=
